<svg version="1.0" xmlns="http://www.w3.org/2000/svg" width="533.333" height="533.333" viewBox="0 0 400 400"><path d="M142 16c-1.3 1.3-2.9 1.6-7.7 1.2-5.4-.4-6.2-.2-7.2 1.7-.9 1.5-2.1 2.1-4.6 2.1-3.2 0-3.5.3-4.6 4.2-.6 2.4-1.6 4.6-2.2 5-1.5.9-2 5.6-.9 8.7.7 2 .6 3.2-.4 4.6-1.6 2.2-1.8 7.6-.5 12.3.9 3.2.8 3.3-5.2 7.4C94.2 73 77.8 88.7 68.2 102c-3.4 4.7-6.5 9-6.9 9.6-.9 1.1-1.3 1.8-6 10.4-7.5 13.5-14.2 32.6-16.9 48-.3 1.4-.7 3.2-.9 4-1.9 6.9-2.3 34.3-.6 46.1.6 4.1 1.3 9.4 1.7 11.8.3 2.3 1.6 8 2.8 12.5l2.3 8.1-2.4 3.6c-3 4.6-3.6 6.9-3.8 15.2-.2 7.1-.3 7.3-7.4 14.9-1.9 2.1-3.1 4.1-2.7 4.5.4.5 7.4.8 15.6.8s15 .2 15.3.5c.3.3 1.2 2.9 2.1 5.9 1.8 6.1 1.7 6.4-7.6 17.2l-4.8 5.7 2.7.7c6.4 1.6 17.4.4 24.9-2.6 4.4-1.8 7.4.4 9.7 7 2.1 6.1 2 6.5-5.7 14.7-2.5 2.7-4.6 5.2-4.6 5.6 0 .5 1.7.9 3.8.9 11.9.5 18-.1 23.2-2.3 5.5-2.3 8.5-.6 14.3 8.2 1.7 2.7 1.7 2.7-1.9 7.5-2 2.6-5 6.1-6.7 7.6-1.7 1.6-2.8 3.2-2.4 3.5.3.3 3.9.8 7.9 1.1 8.2.6 16.7-.8 22-3.7 1.9-1 5.1-2.1 6.9-2.5 3-.5 4 0 8.9 4.5 3 2.7 6.1 5 6.7 5 1.5 0 5.9 5.8 11.5 15.2 2.2 3.7 4.4 6.6 4.8 6.3.4-.2 1.1-2.4 1.5-4.7.4-2.4 1-5 1.2-5.8.3-.8.7-6 1-11.5.2-5.5.5-10.5.5-11.2.1-.8 2.1-1 7.2-.5 37.1 3.4 74-5.9 104.9-26.5 5.6-3.7 10.8-7.2 11.5-7.6.8-.5 1.6.1 2.3 2 3.3 8.5 2.6 8.7 8-2.5 2.7-5.6 5.5-10.2 6.1-10.2 1.4 0 10.6-9.8 11.4-12.3.3-.9 1-1.5 1.5-1.1 1.9 1.1 10.7.5 13.6-.9 1.5-.8 5.1-1.7 8-2 5.7-.6 12.8-3.9 18.5-8.5l3.7-2.9-8.1-2.7c-4.5-1.5-8.7-3.1-9.4-3.7-1.6-1.3-.7-7.8 1.5-10.9 1.2-1.7 3.2-2.7 6.1-3.2 5-.9 10.9-3.8 16.4-8.1l3.9-3.1-8-2.6c-10-3.3-9.9-3.3-10.7-7.5-1-5.4 1.2-8.8 6-9.2 4.7-.3 15.1-5.3 18.2-8.6l2.2-2.3-5.6-1.8c-11.5-3.6-14.1-5.2-15.4-9.1-1.2-3.6-1.1-3.8 2.1-6.5 1.9-1.6 6.2-4.3 9.5-6 7.6-3.8 12.4-7.7 10.4-8.3-7.7-2.1-14.7-5-15.5-6.4-2.6-4.2-8-9.3-11.1-10.5-3.8-1.4-3.6-.9-6.4-13.8-2.3-10.7-5.9-23-7.2-24.5-.4-.5-.8-1.5-.8-2.2 0-3-11-23.9-17.5-33.4-3.4-5-3.4-5.1-1.9-8.2.9-1.7 1.8-4.4 2-6.1.2-1.7.6-4.2.9-5.6 1.8-7.9-.2-14.6-5.4-18.6-.8-.6-1.1-1.8-.8-2.8.4-1-.1-2.4-1.3-3.6-1.1-1.1-2-2.8-2-3.9 0-1-.3-3.3-.7-5.1l-.6-3.3-8.1.6c-9.3.7-19 3.6-25.8 7.8-2.6 1.5-4.9 2.5-5.2 2-.8-1.3-22.7-11.8-30.1-14.5-6.8-2.4-16.4-5.2-21.5-6.2-1.4-.3-4.4-.9-6.7-1.5-6.4-1.4-20.4-2.3-33.3-2.2l-11.5.2-3.5-5c-6.9-9.9-17.1-15.5-29.6-16.2-5.3-.4-7-.1-8.4 1.3z"/></svg>